<svg width="237" height="142" viewBox="0 0 237 142" fill="none" xmlns="http://www.w3.org/2000/svg">
<path d="M12.2293 0H120V142H0C0 142 88.7798 84.5 39.5512 66.5C-9.67742 48.5 12.2293 0 12.2293 0Z" fill="#273888"/>
<path d="M54 0H161.771V142H41.7707C41.7707 142 130.551 84.5 81.3219 66.5C32.0933 48.5 54 0 54 0Z" fill="#384BB7"/>
<path d="M91 0H211V142H91C91 142 179.78 84.5 130.551 66.5C81.3226 48.5 91 0 91 0Z" fill="#4B65F8"/>
<path d="M137 0H237V142H155.373C155.373 142 244.153 84.5 194.924 66.5C145.696 48.5 137 0 137 0Z" fill="#6E84FB"/>
</svg>
