<svg width="14" height="17" viewBox="0 0 14 17" fill="none" xmlns="http://www.w3.org/2000/svg">
<path d="M6.60017 0C4.8503 0.00196529 3.17266 0.69797 1.93532 1.93532C0.69797 3.17266 0.00196529 4.8503 0 6.60017C0 9.28562 1.94953 11.5157 4.01455 13.876C4.66797 14.6235 5.34449 15.3966 5.94675 16.1787C6.02383 16.2787 6.12281 16.3596 6.2361 16.4153C6.34938 16.471 6.47393 16.5 6.60017 16.5C6.72641 16.5 6.85097 16.471 6.96425 16.4153C7.07753 16.3596 7.17652 16.2787 7.25359 16.1787C7.85585 15.3966 8.53237 14.6235 9.18579 13.876C11.2508 11.5157 13.2003 9.28562 13.2003 6.60017C13.1984 4.8503 12.5024 3.17266 11.265 1.93532C10.0277 0.69797 8.35004 0.00196529 6.60017 0ZM6.60017 9.07524C6.11065 9.07524 5.63212 8.93008 5.2251 8.65811C4.81808 8.38615 4.50084 7.9996 4.31351 7.54734C4.12618 7.09508 4.07716 6.59743 4.17267 6.11731C4.26817 5.6372 4.50389 5.19618 4.85004 4.85004C5.19618 4.50389 5.6372 4.26817 6.11731 4.17267C6.59743 4.07716 7.09508 4.12618 7.54734 4.31351C7.9996 4.50084 8.38615 4.81808 8.65811 5.2251C8.93008 5.63212 9.07524 6.11065 9.07524 6.60017C9.07524 7.2566 8.81447 7.88614 8.35031 8.35031C7.88614 8.81447 7.2566 9.07524 6.60017 9.07524Z" fill="black"/>
</svg>
