<svg width="17" height="17" viewBox="0 0 17 17" fill="none" xmlns="http://www.w3.org/2000/svg">
<path fill-rule="evenodd" clip-rule="evenodd" d="M8.5 0C6.24566 0 4.08365 0.895533 2.48959 2.48959C0.895533 4.08365 0 6.24566 0 8.5C0 10.7543 0.895533 12.9163 2.48959 14.5104C4.08365 16.1045 6.24566 17 8.5 17C10.7543 17 12.9163 16.1045 14.5104 14.5104C16.1045 12.9163 17 10.7543 17 8.5C17 6.24566 16.1045 4.08365 14.5104 2.48959C12.9163 0.895533 10.7543 0 8.5 0ZM4.50696 5.88985H12.4996L8.50458 9.05904L4.50696 5.88985ZM3.93354 6.27038L8.3045 9.73381C8.36222 9.77942 8.43363 9.80423 8.50719 9.80423C8.58075 9.80423 8.65217 9.77942 8.70988 9.73381L13.0678 6.273V11.1102H3.93354V6.27038Z" fill="black"/>
</svg>
