<svg width="15" height="15" viewBox="0 0 15 15" fill="none" xmlns="http://www.w3.org/2000/svg">
<path d="M2.19643 12.8036C5.1256 15.7327 9.87395 15.7327 12.8031 12.8036C15.7323 9.8744 15.7323 5.12605 12.8031 2.19688C9.87395 -0.732293 5.1256 -0.732293 2.19643 2.19688C-0.732143 5.12605 -0.732143 9.8744 2.19643 12.8036ZM5.5234 2.83587L6.63938 3.95186C6.86258 4.17506 6.90998 4.52005 6.75518 4.79545L6.33579 5.54004C6.28542 5.62932 6.26572 5.73265 6.2797 5.83419C6.29368 5.93573 6.34057 6.02989 6.41319 6.10224L8.89776 8.58681C8.97018 8.65933 9.06437 8.70611 9.16591 8.71998C9.26745 8.73385 9.37074 8.71405 9.45996 8.66361L10.2045 8.24422C10.3385 8.16871 10.4935 8.13915 10.6458 8.16007C10.7982 8.18098 10.9395 8.25121 11.0481 8.36002L12.1647 9.4766C12.2966 9.60877 12.3707 9.78787 12.3707 9.9746C12.3707 10.1613 12.2966 10.3404 12.1647 10.4726L11.6361 11.0012C11.3429 11.2937 10.9613 11.4813 10.5506 11.5348C10.1398 11.5883 9.72293 11.5047 9.36456 11.297L9.31416 11.2682C7.12363 10.0165 5.29146 8.223 3.99341 6.05964L3.73961 5.63604C3.52389 5.27712 3.4344 4.85636 3.4854 4.44071C3.53639 4.02506 3.72492 3.6384 4.02101 3.34227L4.5274 2.83587C4.59277 2.77042 4.6704 2.71849 4.75585 2.68306C4.8413 2.64763 4.9329 2.6294 5.0254 2.6294C5.1179 2.6294 5.2095 2.64763 5.29495 2.68306C5.3804 2.71849 5.45803 2.77042 5.5234 2.83587Z" fill="black"/>
</svg>
