<svg width="14" height="14" viewBox="0 0 14 14" fill="none" xmlns="http://www.w3.org/2000/svg">
<path d="M7.03373 9.43278L4.29943 12.1671C3.96838 12.4866 3.52625 12.6651 3.06617 12.6651C2.60609 12.6651 2.16397 12.4866 1.83292 12.1671C1.67056 12.0054 1.54172 11.8132 1.45382 11.6015C1.36591 11.3899 1.32066 11.163 1.32066 10.9338C1.32066 10.7047 1.36591 10.4778 1.45382 10.2661C1.54172 10.0545 1.67056 9.8623 1.83292 9.70057L4.56722 6.96627C4.69992 6.83357 4.77447 6.65359 4.77447 6.46592C4.77447 6.27826 4.69992 6.09828 4.56722 5.96558C4.43452 5.83287 4.25454 5.75832 4.06687 5.75832C3.8792 5.75832 3.69922 5.83287 3.56652 5.96558L0.832221 8.70692C0.281384 9.30649 -0.0165251 10.0957 0.000708055 10.9097C0.0179412 11.7237 0.348984 12.4996 0.924703 13.0753C1.50042 13.651 2.2763 13.9821 3.09031 13.9993C3.90431 14.0165 4.69351 13.7186 5.29308 13.1678L8.03443 10.4335C8.16713 10.3008 8.24168 10.1208 8.24168 9.93313C8.24168 9.74546 8.16713 9.56548 8.03443 9.43278C7.90172 9.30008 7.72174 9.22553 7.53408 9.22553C7.34641 9.22553 7.16643 9.30008 7.03373 9.43278ZM13.0802 0.919804C12.4874 0.330666 11.6855 0 10.8498 0C10.014 0 9.21216 0.330666 8.61934 0.919804L5.87799 3.6541C5.81229 3.71981 5.76016 3.79782 5.7246 3.88367C5.68904 3.96952 5.67074 4.06153 5.67074 4.15445C5.67074 4.24738 5.68904 4.33939 5.7246 4.42524C5.76016 4.51109 5.81229 4.5891 5.87799 4.6548C5.9437 4.72051 6.0217 4.77263 6.10755 4.80819C6.1934 4.84375 6.28542 4.86205 6.37834 4.86205C6.47127 4.86205 6.56328 4.84375 6.64913 4.80819C6.73498 4.77263 6.81298 4.72051 6.87869 4.6548L9.61299 1.9205C9.94404 1.601 10.3862 1.42245 10.8462 1.42245C11.3063 1.42245 11.7485 1.601 12.0795 1.9205C12.2419 2.08223 12.3707 2.27442 12.4586 2.48605C12.5465 2.69768 12.5918 2.92459 12.5918 3.15376C12.5918 3.38292 12.5465 3.60983 12.4586 3.82146C12.3707 4.0331 12.2419 4.22529 12.0795 4.38701L9.3452 7.12131C9.27915 7.18682 9.22672 7.26477 9.19094 7.35064C9.15517 7.43652 9.13675 7.52863 9.13675 7.62166C9.13675 7.71469 9.15517 7.8068 9.19094 7.89268C9.22672 7.97855 9.27915 8.05649 9.3452 8.12201C9.41071 8.18806 9.48865 8.24049 9.57453 8.27626C9.66041 8.31204 9.75252 8.33046 9.84555 8.33046C9.93858 8.33046 10.0307 8.31204 10.1166 8.27626C10.2024 8.24049 10.2804 8.18806 10.3459 8.12201L13.0802 5.38066C13.6693 4.78784 14 3.98601 14 3.15023C14 2.31446 13.6693 1.51263 13.0802 0.919804ZM4.72226 9.27774C4.78811 9.34306 4.8662 9.39473 4.95206 9.4298C5.03792 9.46487 5.12986 9.48265 5.22261 9.48211C5.31535 9.48265 5.40729 9.46487 5.49315 9.4298C5.57901 9.39473 5.65711 9.34306 5.72296 9.27774L9.19016 5.81054C9.32286 5.67784 9.39741 5.49786 9.39741 5.31019C9.39741 5.12252 9.32286 4.94254 9.19016 4.80984C9.05746 4.67714 8.87748 4.60259 8.68981 4.60259C8.50215 4.60259 8.32216 4.67714 8.18946 4.80984L4.72226 8.27705C4.65621 8.34256 4.60378 8.4205 4.568 8.50638C4.53222 8.59225 4.5138 8.68436 4.5138 8.77739C4.5138 8.87043 4.53222 8.96254 4.568 9.04841C4.60378 9.13429 4.65621 9.21223 4.72226 9.27774Z" fill="black"/>
</svg>
